<svg width="200" height="200" viewBox="0 0 200 200" xmlns="http://www.w3.org/2000/svg">
<rect x="0" y="0" width="200" height="200" rx="36" fill="#0f1117"/>
<rect x="36" y="68" width="128" height="76" rx="14" fill="none" stroke="#a78bfa" stroke-width="7"/>
<rect x="52" y="84" width="14" height="14" rx="3" fill="#a78bfa"/>
<rect x="74" y="84" width="14" height="14" rx="3" fill="#a78bfa"/>
<rect x="96" y="84" width="14" height="14" rx="3" fill="#a78bfa"/>
<rect x="118" y="84" width="14" height="14" rx="3" fill="#a78bfa"/>
<rect x="140" y="84" width="14" height="14" rx="3" fill="#a78bfa"/>
<rect x="52" y="106" width="14" height="14" rx="3" fill="#7c3aed"/>
<rect x="74" y="106" width="14" height="14" rx="3" fill="#7c3aed"/>
<rect x="96" y="106" width="14" height="14" rx="3" fill="#7c3aed"/>
<rect x="118" y="106" width="14" height="14" rx="3" fill="#7c3aed"/>
<rect x="140" y="106" width="14" height="14" rx="3" fill="#7c3aed"/>
<rect x="62" y="124" width="76" height="14" rx="5" fill="#a78bfa"/>
</svg>